<?xml version="1.0" standalone="no"?>
<!DOCTYPE svg PUBLIC "-//W3C//DTD SVG 20010904//EN"
 "http://www.w3.org/TR/2001/REC-SVG-20010904/DTD/svg10.dtd">
<svg version="1.0" xmlns="http://www.w3.org/2000/svg"
 width="596.000000pt" height="596.000000pt" viewBox="0 0 596.000000 596.000000"
 preserveAspectRatio="xMidYMid meet">
<metadata>
Created by potrace 1.11, written by Peter Selinger 2001-2013
</metadata>
<g transform="translate(0.000000,596.000000) scale(0.100000,-0.100000)"
fill="#000000" stroke="none">
<path d="M2788 5955 c-2 -1 -34 -5 -73 -8 -131 -11 -180 -18 -329 -49 -277
-55 -519 -141 -774 -273 -123 -64 -335 -194 -390 -240 -9 -8 -43 -34 -75 -58
-116 -90 -300 -264 -390 -370 -23 -28 -51 -61 -62 -73 -42 -48 -149 -199 -210
-297 -36 -56 -68 -106 -72 -112 -35 -45 -216 -437 -214 -462 0 -2 -7 -20 -16
-40 -22 -53 -90 -280 -97 -327 -3 -21 -8 -41 -10 -45 -3 -3 -7 -27 -11 -51 -3
-25 -8 -52 -10 -60 -9 -35 -17 -94 -32 -235 -9 -88 -9 -478 1 -565 10 -97 23
-182 48 -310 18 -98 26 -129 61 -255 61 -217 201 -524 330 -723 37 -57 67
-107 67 -112 0 -4 4 -10 8 -12 4 -1 35 -39 67 -83 68 -92 62 -85 117 -150 57
-67 258 -268 333 -332 112 -96 305 -235 405 -292 217 -122 402 -208 585 -269
67 -23 196 -61 229 -68 12 -3 41 -9 66 -14 74 -17 84 -18 120 -24 19 -3 44 -7
55 -10 21 -4 101 -13 224 -25 79 -8 457 -6 501 3 14 2 56 7 93 11 37 3 78 8
90 11 12 2 36 6 52 9 43 6 170 33 240 51 33 9 67 18 75 19 8 2 15 4 15 5 0 1
7 3 15 5 8 2 24 6 35 9 144 36 539 212 647 287 14 11 31 19 37 19 6 0 11 4 11
8 0 5 16 16 36 25 19 10 40 22 47 27 7 6 50 38 97 72 184 132 427 361 558 526
52 66 182 246 182 252 0 5 6 15 14 22 33 34 184 319 248 468 6 14 14 34 19 45
25 60 103 294 114 346 2 8 10 44 19 80 15 65 35 169 42 224 2 16 6 37 9 45 25
84 25 634 1 760 -3 14 -7 43 -10 65 -10 74 -34 200 -56 285 -12 47 -23 90 -24
95 -11 46 -20 72 -29 83 -5 6 -7 12 -3 12 3 0 -1 17 -8 38 -8 20 -28 74 -45
120 -58 154 -135 311 -234 478 -67 113 -244 355 -317 434 -227 245 -367 367
-590 515 -208 138 -478 269 -700 340 -107 34 -109 34 -115 35 -3 1 -35 10 -72
21 -38 11 -84 22 -103 25 -19 3 -62 12 -95 19 -33 8 -82 17 -110 20 -27 4 -63
9 -80 12 -16 3 -50 7 -75 9 -52 6 -477 14 -482 9z m612 -229 c66 -5 200 -25
285 -41 349 -65 701 -211 1008 -416 66 -44 125 -85 132 -92 6 -7 27 -23 45
-37 57 -42 97 -77 196 -171 105 -101 221 -230 296 -333 21 -28 41 -55 46 -61
24 -30 97 -143 151 -238 54 -94 161 -315 161 -333 0 -3 7 -20 14 -37 30 -64
104 -310 122 -402 2 -11 6 -33 10 -48 3 -16 7 -38 9 -50 1 -12 5 -33 9 -47 6
-24 9 -51 23 -175 14 -126 7 -473 -12 -610 -14 -103 -21 -143 -31 -185 -4 -14
-8 -34 -10 -45 -11 -80 -89 -333 -141 -460 -53 -129 -169 -356 -185 -363 -5
-2 -8 -8 -8 -14 0 -18 -126 -199 -213 -308 -126 -157 -310 -338 -457 -451 -25
-18 -46 -37 -48 -41 -2 -5 -10 -8 -17 -8 -7 0 -15 -4 -17 -9 -13 -34 -412
-257 -583 -326 -206 -82 -473 -152 -654 -171 -19 -2 -50 -6 -70 -9 -74 -13
-430 -20 -511 -10 -19 2 -60 7 -90 10 -30 3 -71 7 -90 9 -67 9 -285 54 -345
72 -33 10 -62 18 -65 19 -42 8 -50 18 -51 58 0 23 -2 74 -4 112 -5 85 -5 473
0 570 5 116 15 248 19 275 3 14 7 54 10 90 4 36 8 75 10 87 3 12 7 49 11 82 3
33 7 68 9 78 2 10 7 36 11 58 4 22 9 53 11 69 2 15 5 35 8 45 3 9 8 36 11 61
4 24 8 47 10 51 2 3 6 19 9 35 3 16 17 74 31 129 15 55 27 105 29 110 1 6 11
37 21 70 10 33 19 62 20 65 25 111 218 556 247 568 4 2 8 8 8 14 0 14 104 173
153 233 41 51 151 162 201 203 84 70 272 159 351 166 21 2 41 9 43 16 3 7 0
10 -5 7 -5 -3 -34 -8 -64 -11 -84 -6 -210 -43 -269 -77 -8 -5 -29 -15 -47 -23
-67 -30 -164 -102 -272 -201 -130 -120 -288 -318 -383 -480 -30 -52 -163 -300
-163 -305 0 -3 -12 -30 -26 -60 -51 -106 -82 -184 -147 -370 -39 -110 -98
-295 -107 -336 -2 -10 -25 -100 -50 -199 -25 -99 -48 -193 -50 -210 -3 -16 -8
-43 -12 -60 -3 -16 -7 -37 -8 -45 -1 -8 -5 -28 -8 -45 -8 -37 -16 -79 -22
-125 -3 -19 -8 -46 -11 -60 -3 -14 -8 -38 -10 -55 -2 -16 -6 -52 -10 -79 -3
-27 -7 -56 -9 -65 -3 -17 -16 -129 -20 -171 -1 -14 -3 -31 -3 -38 -2 -16 -51
10 -165 87 -38 25 -76 51 -85 56 -18 10 -93 66 -102 75 -3 3 -27 23 -55 45
-86 69 -106 87 -218 199 -59 60 -144 154 -188 210 -43 56 -83 106 -89 113 -75
91 -231 365 -299 526 -94 220 -156 442 -195 692 -28 179 -29 643 -1 785 3 13
7 42 10 65 8 52 31 164 50 240 8 33 17 68 19 77 13 49 83 243 112 306 19 41
34 80 34 88 0 8 5 14 10 14 6 0 10 6 10 13 0 29 199 363 265 445 7 10 42 53
77 97 66 84 309 332 366 375 19 14 41 32 50 40 10 9 35 29 57 45 22 16 42 32
45 35 8 9 200 135 245 161 251 141 553 257 800 305 11 2 31 6 45 9 47 10 75
15 120 21 25 3 54 8 65 10 11 2 60 6 110 10 49 3 91 7 92 8 4 3 335 -3 383 -8z"/>
<path d="M3180 4453 c-35 -14 -70 -46 -70 -62 0 -9 15 -34 33 -55 18 -20 46
-62 62 -94 17 -31 55 -82 86 -113 30 -31 69 -74 86 -95 45 -57 139 -247 149
-304 l5 -25 -23 20 c-54 47 -200 116 -329 156 -57 17 -111 36 -119 40 -93 48
-252 25 -367 -55 -64 -44 -72 -59 -48 -87 33 -37 146 -105 206 -123 73 -22
100 -24 184 -11 140 20 421 7 491 -25 24 -10 44 -21 44 -23 0 -2 -16 -73 -35
-158 -64 -276 -107 -431 -148 -534 l-41 -100 -2 -148 c-2 -86 -7 -154 -13
-161 -8 -9 -7 -18 3 -31 16 -22 59 -22 111 -1 39 17 136 112 158 155 7 14 18
35 24 46 33 59 37 86 37 290 0 179 -10 335 -27 440 -3 17 -9 50 -12 75 -10 63
-13 79 -21 102 -5 18 -2 19 48 17 29 -1 70 -8 90 -15 94 -32 231 -154 319
-284 27 -39 49 -73 49 -75 0 -7 62 -65 68 -65 4 0 19 -10 33 -22 28 -26 46
-36 128 -78 70 -36 97 -38 107 -8 13 41 7 154 -11 209 -47 144 -98 196 -322
328 -155 91 -331 125 -444 86 -23 -9 -44 -13 -47 -10 -9 8 129 135 154 141 13
3 24 10 24 15 0 5 8 9 18 9 10 0 22 4 27 9 10 10 29 14 115 26 25 4 64 16 87
27 54 27 183 144 183 167 0 18 -38 57 -80 82 -72 44 -205 50 -272 13 -62 -35
-170 -130 -221 -195 -26 -33 -27 -34 -28 -9 0 14 -2 34 -5 45 -2 11 -7 38 -10
60 -7 42 -52 185 -78 246 -39 93 -146 159 -265 165 -42 2 -83 1 -91 -3z"/>
</g>
</svg>
