<svg id="Layer_1" xmlns="http://www.w3.org/2000/svg" width="161.6" height="95" viewBox="0 0 161.6 95"><style>.st0{fill:#fff}</style><path class="st0" d="M1.2 95.6c39.2 0 78.3-1.3 113.2-21.3 12.7-7.3 23.2-17.4 30.8-29.9 7.9-13.1 12.4-28.2 17-42.7.7-2.3-2.9-3.3-3.6-1-4.4 13.5-8.6 27.2-15.5 39.7-7.2 13.1-17.9 23.1-30.6 30.6C78.6 91.1 39.3 91.8 1.2 91.8c-2.4 0-2.4 3.8 0 3.8z"/><path class="st0" d="M157.7.7c-3.6 10.4-12.9 18.3-22.5 23-2.2 1.1-.3 4.3 1.9 3.2 10.5-5.2 20.3-14 24.2-25.3.8-2.2-2.8-3.2-3.6-.9z"/><path class="st0" d="M157.7 2v28.3c0 2.4 3.8 2.4 3.8 0V2c-.1-2.4-3.8-2.4-3.8 0z"/></svg>