<svg xmlns="http://www.w3.org/2000/svg" width="297" height="297.5" viewBox="0 0 297 297.5"><path d="M90.1 279.7s.2-3 .6-8.3c.3-2.8.6-6.1 1-9.9.2-1.9.5-3.9.7-6 .3-2.1.6-4.3 1-6.6.3-2.3.7-4.7 1.2-7.2.2-1.2.4-2.5.7-3.8.3-1.3.5-2.6.8-3.9.3-1.3.5-2.6.8-4 .3-1.3.6-2.7.9-4.1.6-2.7 1.3-5.5 2-8.3.7-2.8 1.5-5.7 2.3-8.6.8-2.9 1.7-5.8 2.7-8.7 1-2.9 1.9-5.8 3-8.7.5-1.4 1.1-2.9 1.6-4.4l1.7-4.3c.6-1.4 1.2-2.9 1.8-4.3.6-1.4 1.2-2.8 1.9-4.2 1.3-2.8 2.6-5.6 4.1-8.3 1.4-2.7 2.9-5.3 4.4-7.9 1.6-2.5 3.1-5.1 4.8-7.5 1.6-2.4 3.4-4.7 5.1-6.9 1.8-2.2 3.5-4.3 5.4-6.2.9-1 1.8-2 2.8-2.8.9-.9 1.8-1.8 2.8-2.6 1-.8 1.9-1.6 2.8-2.4.9-.8 1.9-1.5 2.8-2.2.5-.3.9-.7 1.4-1 .5-.3 1-.6 1.4-.9 1-.6 1.8-1.2 2.8-1.7 1.9-1 3.6-2 5.4-2.6 3.5-1.5 6.7-2.2 9.3-2.7 2.7-.4 4.7-.5 6.2-.5h2.2s-.7.1-2.2.3c-1.4.1-3.4.6-5.9 1.2-2.5.8-5.4 1.9-8.5 3.7-1.6.8-3.1 2-4.8 3.1-.8.6-1.6 1.3-2.4 1.9-.4.3-.8.7-1.2 1-.4.4-.8.8-1.2 1.1-.8.8-1.6 1.5-2.4 2.4-.8.8-1.5 1.7-2.3 2.6-.8.9-1.5 1.9-2.3 2.8-.8.9-1.5 1.9-2.2 3-1.5 2-2.8 4.2-4.2 6.4-1.3 2.3-2.7 4.6-3.9 7.1-1.3 2.4-2.4 5-3.6 7.5-1.1 2.6-2.2 5.2-3.2 8-1 2.7-1.9 5.5-2.8 8.2-.4 1.4-.8 2.8-1.3 4.2l-1.2 4.2-1.1 4.2c-.3 1.4-.7 2.9-1 4.3-.7 2.8-1.2 5.7-1.8 8.5-.5 2.8-1 5.7-1.4 8.5-.4 2.8-.8 5.6-1.1 8.3-.3 2.7-.6 5.4-.9 8-.1 1.3-.2 2.6-.4 3.9-.1 1.3-.2 2.6-.3 3.8-.1 1.3-.2 2.5-.2 3.7-.1 1.2-.1 2.4-.2 3.6-.1 2.4-.2 4.6-.2 6.8s-.1 4.3-.1 6.3v5.7c.1 3.5.2 6.5.3 9.1.3 5.3.4 8.3.4 8.3l-24.8-.2z"/><path d="M179.2 118.2s.2.9.6 2.6c.2.8.4 1.8.6 3 .2 1.1.4 2.4.6 3.9.4 2.8.8 6.2 1.1 9.7.1 1.8.3 3.7.3 5.5.1 1.9 0 3.8 0 5.8 0 1.9 0 3.9.1 5.9v2.9c-.1 1-.2 1.9-.4 2.8-.4 1.8-1.1 3.6-2 5.2-.8 1.6-1.9 3.1-3 4.4-1.1 1.3-2.3 2.5-3.6 3.4-1.2.9-2.6 1.6-3.9 1.9-1.2.3-2.4.2-3 0-.7-.3-.9-.5-.9-.5v-1.5l.4-.6c.1-.2.2-.4.2-.7.1-.3.1-.6.1-1 0-.7 0-1.5-.1-2.5 0-1-.1-2.1-.1-3.3 0-1.2 0-2.6.1-4s.3-2.9.7-4.5c.4-1.5 1.1-3.1 1.8-4.7s1.4-3.3 1.9-5c.5-1.7.9-3.5 1.4-5.2.4-1.7.9-3.5 1.3-5.1.4-1.7.8-3.3 1.2-4.8.4-1.5.7-3 1-4.4 1.3-5.5 2.1-9.2 2.1-9.2h1.5z"/><path d="M178.1 117.1s.2-.1.5-.4c.3-.3.8-.6 1.6-1.1.4-.2.8-.4 1.3-.6.5-.2 1-.4 1.6-.6 1.2-.4 2.5-.6 4.1-.7 1.5-.1 3.2 0 4.9.3 1.7.3 3.5.7 5.2 1.3 1.8.6 3.5 1.3 5.2 2.2 1.7.9 3.4 1.9 5 2.9 1.6 1.1 3.3 2.1 4.9 3.2.8.5 1.6 1.1 2.3 1.7.7.6 1.4 1.2 2 1.9 1.2 1.3 2.1 2.8 2.8 4.3.7 1.5 1.2 3 1.6 4.4.4 1.4.6 2.8.7 4 .1 1.2.1 2.4 0 3.3-.1 1-.2 1.7-.3 2.2-.1.5-.2.8-.2.8l-1.3.8s-.3-.1-.8-.3c-.5-.2-1.2-.5-2-.8-.8-.4-1.8-.8-2.8-1.4-1-.6-2.1-1.2-3.2-1.9s-2.2-1.5-3.3-2.4c-1.1-.9-2.1-1.8-3.1-3-.9-1.1-1.7-2.5-2.5-3.8-.8-1.4-1.7-2.7-2.7-3.9-1-1.2-2.1-2.3-3.2-3.4s-2.2-2.1-3.3-3c-2.2-1.8-4.5-3.2-6.7-4-1.1-.4-2.1-.7-3-.8-.5-.1-.9-.1-1.3-.1h-1.2c-.3 0-.6 0-.9.1-.3 0-.5.1-.7.1-.4.1-.6.1-.6.1l-.6-1.4z"/><path d="M177.7 118.3s-.1-.2-.2-.5c-.1-.1-.2-.1-.3-.3-.1-.1-.3-.3-.6-.4-.5-.3-1.1-.5-1.9-.8-.8-.2-1.8-.4-2.9-.6-1.1-.2-2.3-.3-3.6-.4-1.3-.1-2.6-.2-4.1-.2h-8.9c-1.5 0-3.1.2-4.6.5-1.5.2-3 .5-4.4.4-1.4-.1-2.8-.4-4-.8-1.3-.4-2.5-.9-3.6-1.4-2.2-1.1-4.2-2.4-5.5-3.5-.7-.6-1.2-1-1.6-1.4l-.6-.6V107l.6-.6c.4-.4.9-.8 1.6-1.4 1.4-1.1 3.4-2.3 5.9-3.2 1.2-.5 2.6-.8 4-1.1 1.4-.3 2.9-.4 4.4-.2.8.1 1.5.2 2.3.4.8.2 1.6.5 2.3.8 1.6.6 3.1 1.2 4.7 1.6 1.6.5 3.2.9 4.7 1.5 1.6.5 3.1 1.1 4.5 1.8 2.9 1.3 5.6 2.7 7.7 4.1 1.1.7 2.1 1.5 2.9 2.3.8.8 1.5 1.6 1.9 2.4l.3.6c.1.2.1.4.2.6.1.3.2.8.2 1 0 .4-.1.6-.1.6l-1.3.1z"/><path d="M177.7 118.2s-.2-.8-.6-2.2c-.2-.7-.5-1.5-.7-2.4-.3-.9-.7-1.9-1-3.1-.4-1.1-.9-2.3-1.4-3.5-.3-.6-.5-1.2-.8-1.8-.3-.6-.6-1.3-.9-1.9-.6-1.3-1.3-2.5-2-3.8-.7-1.2-1.4-2.5-2.3-3.6-.8-1.1-1.8-2.2-2.8-3-1-.9-2-1.6-2.7-2.4-.7-.8-1.3-1.7-1.7-2.5-.5-.9-.9-1.7-1.4-2.5-.4-.8-.9-1.6-1.4-2.4-.5-.7-1-1.5-1.5-2.1-.3-.3-.5-.6-.7-.9l-.6-.6c-.3-.4-.5-.6-.5-.6v-1.5s.2-.2.6-.5c.4-.4 1.1-.8 2-1.2.9-.4 2-.8 3.4-.9 1.4-.1 2.9-.1 4.5.3 1.6.3 3.3 1 4.9 1.9 1.6.9 3.1 2.1 4.3 3.6.6.7 1.1 1.6 1.5 2.4.4.9.8 1.7 1.1 2.6.6 1.8 1.2 3.6 1.7 5.3.5 1.7 1 3.5 1.3 5.2.3 1.7.5 3.4.7 5 .1 1.6.2 3.2.1 4.7 0 1.5-.1 2.9-.2 4.1-.2 2.5-.6 4.6-.9 6-.3 1.4-.5 2.2-.5 2.2l-1.5.1z"/><path d="M177.7 118.1s-.2-.7-.4-1.9c-.2-.6-.2-1.5-.2-2.4v-.8c0-.3 0-.5.1-.8.1-.5.1-1.1.2-1.7.1-.6.3-1.2.4-1.8.2-.6.3-1.3.6-1.9.3-.7.5-1.3.8-2 .4-.6.7-1.3 1.1-2 .4-.7.9-1.3 1.3-1.9.5-.7 1-1.3 1.5-1.9.5-.6 1.1-1.2 1.7-1.8l1.8-1.6c.6-.6 1.3-1 1.9-1.6.6-.5 1.3-1.1 1.9-1.6.7-.5 1.3-1 2-1.4.7-.4 1.4-.7 2.1-1 1.4-.6 2.9-.7 4.4-.7 1.4 0 2.8.2 4 .5 1.2.3 2.3.8 3.3 1.2 1 .4 1.8 1.1 2.4 1.6.3.2.6.5.9.7.2.2.5.4.6.6.3.3.5.6.5.6V96s-.2.2-.5.6c-.2.2-.3.4-.6.6-.2.2-.5.5-.7.8l-.9.9c-.3.3-.6.6-1 .9-.7.7-1.5 1.3-2.3 1.9l-1.2.9c-.4.3-.9.5-1.3.8-.8.6-1.8 1-2.7 1.3-.5.1-1 .2-1.6.3-.5.1-1.1.1-1.7.2-.6 0-1.2.1-1.7.2-.6.1-1.2.2-1.7.4l-1.6.6c-.5.2-1 .5-1.5.7-.5.2-1 .5-1.5.8-.5.3-1 .5-1.4.8-.5.3-.9.6-1.3.9-.4.3-.8.7-1.2 1-.4.3-.7.7-1.1 1-.3.4-.7.7-1 1-.3.4-.5.7-.8 1.1-.1.2-.3.3-.4.5-.1.2-.2.3-.3.5-.2.3-.4.6-.5.9-.1.1-.2.3-.3.4-.1.2-.1.3-.2.5-.4 1.2-.7 1.8-.7 1.8l-1.2-.2z"/><path d="M297 148.7v2.5c-.1 1.7 0 4.1-.3 7.3-.1 1.6-.2 3.4-.4 5.4-.2 2-.5 4.1-.8 6.4-.4 2.3-.8 4.8-1.3 7.4-.3 1.3-.6 2.7-.9 4.1-.2.7-.3 1.4-.5 2.1-.2.7-.4 1.4-.6 2.2l-1.2 4.5c-.5 1.5-1 3.1-1.5 4.7s-1.1 3.2-1.7 4.8c-.6 1.6-1.2 3.3-2 5-.7 1.7-1.5 3.4-2.2 5.1-.8 1.7-1.6 3.5-2.5 5.2-.9 1.8-1.9 3.5-2.8 5.3l-1.5 2.7c-.5.9-1.1 1.8-1.6 2.7-4.5 7.2-9.7 14.5-16.1 21.6-6.4 7.1-13.7 14.1-22.2 20.4-8.5 6.3-18.1 12-28.7 16.6-10.5 4.8-22.2 8.3-34.4 10.5-1.5.3-3.1.5-4.6.7-1.6.2-3.1.4-4.7.6-1.6.1-3.2.3-4.8.4l-2.4.2-2.5.1c-1.5.1-3 .1-4.5.2h-5c-3.4 0-6.7-.3-10-.5-6.6-.6-13.3-1.5-20-3.1-3.4-.7-6.7-1.7-10-2.6-1.7-.5-3.3-1.1-4.9-1.7l-2.5-.8-2.4-1c-13.1-5-25.7-12.1-37.4-20.9-11.5-9-22.1-19.7-30.7-32l-3.2-4.7-3-4.8-1.5-2.4-1.4-2.5c-.9-1.7-1.9-3.3-2.7-5-3.4-6.8-6.2-14-8.6-21.2-2.4-7.3-4-14.8-5.2-22.4L1 166c-.3-1.9-.4-3.8-.5-5.7-.2-1.9-.3-3.8-.4-5.8l-.1-2.9v-3.3l.2-5.1v-1.3c0-.4 0-.8.1-1.4l.2-3 .2-3 .1-1.5c0-.5.1-1 .2-1.4l.8-5.7c.3-1.9.7-3.8 1-5.7l.5-2.8.7-2.8c.5-1.9.9-3.7 1.4-5.6l1.7-5.5c2.4-7.3 5.2-14.4 8.6-21.2C19.2 75.5 23 69 27.4 62.8 36 50.3 46.5 39.5 58 30.6c11.6-8.8 24.3-15.9 37.4-20.9l2.4-1 2.5-.8c1.7-.6 3.3-1.1 4.9-1.6 3.3-.9 6.6-1.9 10-2.6 6.7-1.6 13.4-2.5 20-3.1 3.3-.2 6.6-.5 9.9-.5 1.6 0 3.3-.1 4.9-.1 1.6.1 3.2.1 4.8.2l2.6.1 2.2.2c1.5.1 3 .3 4.5.4l4.8.6c1.6.2 3.2.4 4.7.7 12.3 2.2 23.9 5.7 34.4 10.4 10.6 4.6 20.2 10.3 28.7 16.6 2.1 1.6 4.2 3.2 6.2 4.9 1.9 1.7 3.9 3.3 5.7 5.1 3.7 3.5 7.2 6.9 10.3 10.5 6.4 7.1 11.7 14.5 16.1 21.6.5.9 1.1 1.8 1.6 2.7.5.9 1.1 1.8 1.5 2.7 1 1.8 1.9 3.6 2.8 5.3.8 1.8 1.7 3.5 2.5 5.2.8 1.7 1.5 3.4 2.2 5.1.8 1.7 1.3 3.3 2 5 .6 1.6 1.2 3.2 1.7 4.8.5 1.6 1 3.1 1.5 4.7l1.2 4.5c.2.7.4 1.4.6 2.2.2.7.3 1.4.5 2.1.3 1.4.6 2.7.9 4.1.5 2.6.9 5.1 1.3 7.4.3 2.3.6 4.5.8 6.4.2 2 .3 3.8.4 5.4.3 3.2.2 5.7.3 7.3.2 1.6.2 2.5.2 2.5zm-2 0s0-.8-.1-2.5c-.1-1.6 0-4.1-.3-7.2-.4-6.3-1.5-15.6-4.7-27.1-.4-1.4-.8-2.9-1.3-4.4l-1.5-4.5c-.5-1.6-1.1-3.1-1.8-4.7-.6-1.6-1.2-3.2-2-4.8-2.8-6.6-6.5-13.4-11-20.3-9.1-13.7-21.9-27.7-38.8-39-8.4-5.6-17.9-10.5-28.1-14.4-10.2-3.9-21.3-6.5-32.8-7.8-1.4-.2-2.9-.3-4.3-.4-1.4-.1-2.9-.2-4.4-.3-1.5 0-3-.1-4.5-.1l-2.2-.1c-.7 0-1.5 0-2.2.1-1.5 0-3 .1-4.5.1l-4.5.3c-3 .2-6 .6-9 1-6 1-12.1 2.1-18 3.9-3 .8-5.9 1.9-8.9 2.9-1.5.5-2.9 1.1-4.4 1.7l-2.2.9-2.2 1c-11.6 5.1-22.5 12-32.5 20.4-5 4.2-9.6 8.8-14.1 13.7-4.4 4.9-8.4 10.2-12.1 15.7-3.7 5.5-6.9 11.4-9.8 17.4-2.9 6-5.2 12.3-7.2 18.7-2 6.4-3.3 13-4.3 19.6-1 6.7-1.4 13.3-1.4 20.2.1 6.6.5 13.4 1.4 20.1 1 6.6 2.4 13.2 4.3 19.6 2 6.4 4.3 12.7 7.2 18.7 2.9 6 6.1 11.9 9.8 17.4 3.7 5.5 7.7 10.8 12.1 15.7 4.4 4.9 9.1 9.5 14.1 13.7 10 8.4 20.9 15.3 32.5 20.4l2.2 1 2.2.9c1.5.6 2.9 1.2 4.4 1.7 3 1 5.9 2.1 8.9 2.9 5.9 1.8 12 3 18 3.9 3 .4 6 .8 9 1 1.5.1 3 .3 4.5.3s3 .1 4.5.1c.7 0 1.5.1 2.2.1l2.2-.1c1.5 0 3-.1 4.4-.1 1.5-.1 2.9-.2 4.4-.3 1.5-.1 2.9-.2 4.3-.4 11.5-1.3 22.6-3.9 32.8-7.8 10.2-3.8 19.6-8.8 28.1-14.4 16.9-11.3 29.7-25.3 38.8-39 4.5-6.9 8.2-13.7 11-20.3.8-1.6 1.4-3.3 2-4.8.6-1.6 1.3-3.1 1.8-4.7.5-1.5 1-3.1 1.5-4.5.4-1.5.9-3 1.3-4.4 3.2-11.4 4.3-20.7 4.7-27 .3-3.1.3-5.6.3-7.3.2-1.6.2-2.4.2-2.4z"/></svg>